<?xml version="1.0" encoding="UTF-8"?>
<!DOCTYPE svg PUBLIC "-//W3C//DTD SVG 1.1//EN" "http://www.w3.org/Graphics/SVG/1.1/DTD/svg11.dtd">
<!-- Creator: CorelDRAW X8 -->
<svg xmlns="http://www.w3.org/2000/svg" xml:space="preserve" width="52.8958mm" height="54.2176mm" version="1.1" style="shape-rendering:geometricPrecision; text-rendering:geometricPrecision; image-rendering:optimizeQuality; fill-rule:evenodd; clip-rule:evenodd"
viewBox="0 0 5212 5343"
 xmlns:xlink="http://www.w3.org/1999/xlink">
 <defs>
  <style type="text/css">
   <![CDATA[
    .fil1 {fill:#8161A4;fill-rule:nonzero}
    .fil3 {fill:#A8CA5A;fill-rule:nonzero}
    .fil0 {fill:#D3408D;fill-rule:nonzero}
    .fil2 {fill:#FCD93A;fill-rule:nonzero}
   ]]>
  </style>
 </defs>
 <g id="Camada_x0020_1">
  <metadata id="CorelCorpID_0Corel-Layer"/>
  <path class="fil0" d="M1573 3131c58,60 115,118 0,0zm-6 -6c-42,-41 -95,-71 -158,-91 -65,-21 -147,-31 -246,-31 -84,0 -158,6 -223,19 -64,13 -125,30 -181,51l31 117c8,0 15,-1 22,-1 238,-11 469,-50 693,-111 23,13 43,29 62,47zm-841 69l0 -165 -222 0 0 -7c0,-51 31,-77 94,-77 25,0 48,1 68,3 20,3 40,6 60,11l0 -250c-27,-8 -60,-14 -98,-19 -38,-5 -87,-7 -146,-7 -68,0 -123,7 -167,21 -45,14 -83,38 -116,70 -31,31 -52,66 -64,106 -13,40 -20,86 -22,139l-113 0 0 245c231,-32 473,-56 726,-70zm1812 -1388l0 -129 -401 0 0 960 401 0 0 -508c0,-41 11,-73 33,-94 22,-22 48,-33 77,-33 29,0 53,11 74,33 20,21 30,53 30,94l0 345c89,-67 175,-140 258,-217 48,-45 95,-89 143,-132 1,-39 12,-69 33,-90 22,-22 48,-33 77,-33 9,0 17,1 25,3 118,-102 236,-199 353,-290 10,7 20,15 28,23 -58,-56 -136,-84 -234,-84 -74,0 -137,15 -188,45 -51,30 -97,68 -138,114 -27,-52 -64,-91 -112,-118 -48,-27 -105,-41 -170,-41 -67,0 -124,16 -172,46 -48,31 -87,66 -117,106zm-2062 226c30,-33 68,-49 114,-49 45,0 83,16 113,49 31,33 46,74 46,123l0 4c0,49 -15,90 -46,123 -30,33 -68,49 -113,49 -24,0 -45,-4 -64,-13 -19,-9 -36,-21 -50,-37 -14,-16 -25,-34 -33,-55 -8,-22 -12,-44 -12,-67l0 -4c0,-49 15,-90 45,-123zm1062 -63c22,-26 50,-39 84,-39 35,0 65,13 90,38 24,25 39,61 44,106l-260 0c5,-44 19,-79 42,-105zm-1499 -416l0 1084 400 0 0 -109c31,34 68,64 113,91 44,27 102,41 175,41 56,0 109,-12 159,-36 49,-24 92,-59 129,-103 37,-45 66,-98 88,-160 4,-13 8,-26 12,-40 1,-6 3,-12 4,-18 1,-6 2,-11 3,-17 4,-18 7,-36 9,-55 2,20 5,39 9,57 2,7 4,14 5,21 2,6 4,12 5,17 5,14 9,27 14,40 26,61 61,113 107,156 47,44 102,78 167,102 66,24 137,36 216,36 104,0 191,-20 261,-58 69,-39 128,-89 176,-151l-214 -171c-32,33 -63,57 -94,74 -31,16 -65,24 -101,24 -43,0 -81,-10 -113,-32 -31,-22 -54,-54 -68,-96l617 0c1,-10 1,-21 1,-33l0 -34c0,-72 -9,-141 -29,-205 -20,-65 -51,-121 -92,-169 -41,-48 -93,-86 -155,-113 -63,-28 -137,-42 -223,-42 -72,0 -139,13 -199,39 -60,26 -112,61 -156,106 -43,46 -77,99 -102,160 -5,13 -9,26 -13,39 -2,6 -3,12 -5,18 -1,5 -2,10 -4,15 -4,17 -7,35 -9,53 -2,-20 -5,-39 -8,-57 -1,-7 -3,-15 -4,-22 -2,-5 -3,-11 -5,-17 -3,-13 -7,-26 -11,-39 -21,-61 -51,-113 -88,-157 -38,-44 -82,-78 -132,-102 -50,-24 -104,-36 -162,-36 -36,0 -68,4 -96,13 -28,8 -54,18 -76,31 -22,13 -42,28 -61,45 -18,17 -35,34 -51,52l1 -441 0 197c-133,2 -266,3 -400,2zm2029 -905l-390 398 0 249 0 0 0 -249 391 -398 -1 0zm-1326 567c8,10 17,18 26,27 14,12 29,23 45,32 -16,-9 -31,-20 -45,-32 -9,-9 -18,-18 -26,-27zm296 101c39,-4 74,-13 106,-27 -32,14 -67,23 -106,27zm595 -780c-14,-32 -35,-62 -60,-88 25,26 46,56 60,88zm-799 118c31,-12 63,-22 95,-31 -32,9 -64,19 -95,31zm-330 -308l0 -7c0,-44 23,-69 69,-76 -46,7 -69,32 -69,76l0 7 0 0zm176 -79c15,2 29,5 44,9 -15,-4 -29,-7 -44,-9zm37 -243c-11,-3 -22,-6 -34,-8 12,2 23,5 34,8z"/>
  <g id="_2441767048080">
   <polygon class="fil1" points="1694,648 2069,648 1678,1046 1678,1295 2620,1295 2620,982 2228,982 2620,585 2620,336 1694,336 "/>
   <path class="fil1" d="M1276 900l0 40c0,46 -12,82 -35,108 -24,27 -53,40 -88,40 -26,0 -47,-9 -65,-26 -18,-17 -26,-39 -26,-67l0 -4c0,-30 10,-56 31,-76 21,-21 52,-31 92,-31 16,0 32,2 49,4 16,3 30,7 42,12zm-46 -157c-17,-5 -36,-8 -57,-12 -20,-3 -42,-6 -64,-8 -22,-2 -43,-2 -63,-2 -113,0 -202,25 -267,77 -66,51 -99,125 -99,221l0 4c0,48 8,90 23,126 15,37 37,67 65,93 28,25 62,44 100,57 39,13 81,19 127,19 59,0 112,-11 157,-32 45,-22 85,-51 119,-87l0 96 399 0 0 -546c0,-71 -8,-130 -23,-178 -16,-48 -41,-90 -78,-126 -42,-43 -95,-74 -160,-94 -65,-21 -147,-31 -246,-31 -84,0 -158,6 -223,19 -64,13 -125,30 -181,51l71 265c42,-16 84,-29 127,-39 43,-10 89,-15 138,-15 62,0 107,12 135,36 28,24 42,58 42,103l0 16c-10,-5 -24,-9 -42,-13z"/>
   <path class="fil1" d="M112 1295l401 0 0 -652 213 0 0 -297 -222 0 0 -7c0,-51 31,-77 94,-77 25,0 48,1 68,3 20,3 40,6 60,11l0 -250c-27,-8 -60,-14 -98,-19 -38,-5 -87,-7 -147,-7 -67,0 -122,7 -166,21 -45,14 -83,38 -116,70 -31,31 -52,66 -64,106 -13,40 -20,86 -23,139l-112 0 0 307 112 0 0 652z"/>
   <path class="fil1" d="M439 1551l0 -197 -400 0 0 199c134,1 267,0 400,-2z"/>
  </g>
  <path class="fil2" d="M2538 2623c-8,4 -15,9 -23,14l23 0 0 -14z"/>
  <g id="_2441767049936">
   <path class="fil2" d="M2970 3416c6,-45 20,-80 42,-106 22,-25 51,-38 85,-38 35,0 65,12 89,38 25,25 39,60 44,106l-260 0zm624 142l0 -33c0,-73 -10,-141 -30,-206 -20,-64 -50,-120 -91,-168 -41,-49 -93,-86 -156,-114 -63,-27 -137,-41 -222,-41 -73,0 -139,13 -200,39 -60,25 -112,61 -155,106 -44,45 -77,98 -102,160 -25,61 -37,128 -37,199l0 4c0,75 13,143 38,204 25,61 61,113 107,156 46,43 102,77 167,101 65,24 137,36 215,36 104,0 191,-19 261,-58 70,-39 129,-89 177,-151l-215 -170c-31,32 -63,57 -94,73 -31,17 -64,25 -101,25 -43,0 -81,-11 -112,-33 -32,-21 -55,-53 -69,-95l617 0c1,-11 2,-22 2,-34z"/>
   <path class="fil2" d="M112 3978l401 0 0 -652 213 0 0 -132c-253,14 -495,38 -726,70l0 62 112 0 0 652z"/>
   <path class="fil2" d="M3027 4620c1,0 3,-1 4,-1 -1,0 -3,1 -4,1zm5 -2c7,-2 15,-3 22,-4 -7,1 -15,2 -22,4zm-1026 394c-4,-1 -8,-2 -12,-3 4,1 8,2 12,3zm-87 -50c-10,-12 -19,-25 -26,-40 7,15 16,28 26,40zm-35 -183c7,-24 20,-45 37,-64 30,-33 68,-49 113,-49 46,0 84,16 114,49 15,17 27,36 34,57 131,-9 261,-27 388,-52 2,11 4,22 5,33 -2,-15 -4,-29 -6,-43 -2,-7 -3,-14 -5,-21 -1,-6 -2,-12 -4,-18 -3,-13 -7,-26 -12,-39 -21,-60 -50,-113 -88,-157 -37,-43 -81,-77 -131,-102 -51,-24 -105,-36 -162,-36 -36,0 -69,5 -97,13 -28,8 -53,18 -75,31 -23,13 -43,28 -61,45 -18,17 -35,34 -52,52l2 -441 -401 0 0 748c131,-5 264,-7 401,-6zm1556 -290c-40,-46 -91,-83 -153,-110 -62,-28 -137,-42 -222,-42 -73,0 -139,13 -199,39 -61,26 -113,61 -156,106 -43,45 -77,99 -102,160 -5,13 -9,26 -13,39 -2,6 -4,12 -5,18 -2,5 -3,10 -4,16 -4,16 -7,33 -9,51l0 0c2,-16 5,-33 9,-49 172,-35 340,-84 504,-146 106,-35 209,-76 310,-121 15,12 28,25 40,39zm-1553 725c23,26 51,50 83,71 -32,-21 -60,-45 -83,-71zm503 57c25,-19 49,-41 70,-67 11,-14 22,-29 32,-44 -10,15 -21,30 -32,44 -22,26 -45,48 -70,67zm186 -355c2,18 5,35 8,53 -3,-18 -6,-35 -8,-53zm686 407c35,-9 68,-22 97,-38 56,-31 105,-69 146,-115 -42,46 -90,84 -146,115 -29,16 -62,29 -97,38zm300 -391c1,-8 2,-16 2,-25 0,9 -1,17 -2,25z"/>
   <path class="fil2" d="M1241 3731c-24,27 -53,40 -88,40 -26,0 -48,-9 -65,-26 -18,-17 -26,-39 -26,-67l0 -4c0,-30 10,-56 31,-76 21,-21 52,-31 92,-31 16,0 32,2 49,4 16,3 30,7 42,12l0 40c0,46 -12,82 -35,108zm429 247l0 -546c0,-71 -8,-130 -23,-178 -16,-48 -41,-90 -78,-126 -19,-19 -40,-36 -64,-50 -224,61 -455,100 -693,111 -7,0 -14,1 -22,1l40 149c42,-17 84,-30 127,-40 43,-10 89,-15 138,-15 62,0 107,12 135,36 28,24 42,58 42,103l0 16c-10,-5 -24,-9 -42,-13 -17,-5 -36,-8 -57,-12 -20,-3 -42,-6 -64,-8 -22,-1 -43,-2 -63,-2 -113,0 -202,25 -267,77 -66,52 -99,125 -99,221l0 4c0,48 8,90 23,126 15,37 37,67 65,93 28,25 62,44 100,57 39,13 81,19 127,19 59,0 112,-11 157,-32 45,-22 85,-51 119,-87l0 96 399 0z"/>
   <path class="fil2" d="M3337 2035c20,22 30,53 30,94l0 508 401 0 0 -633c0,-109 -30,-194 -89,-256 -12,-13 -24,-23 -38,-33 -117,91 -235,188 -353,291 18,4 35,14 49,29z"/>
   <path class="fil2" d="M3611 3019l0 959 401 0 0 -244c0,-107 22,-184 66,-233 44,-48 108,-73 192,-73l43 0 0 -423c-80,-4 -143,14 -190,52 -47,39 -84,91 -111,155l0 -193 -401 0z"/>
   <path class="fil2" d="M3010 2257c-83,77 -169,150 -258,217l0 163 401 0 0 -508c0,-2 0,-3 0,-4 -48,43 -95,87 -143,132z"/>
   <path class="fil2" d="M705 4844c0,3 0,6 0,9 124,-18 251,-32 382,-43 0,8 1,16 1,24 0,-67 -14,-130 -40,-190 -26,-60 -63,-113 -110,-159 -48,-46 -105,-82 -171,-108 -66,-26 -138,-40 -217,-40 -80,0 -153,14 -219,41 -66,27 -123,63 -170,109 -48,46 -85,99 -112,160 -27,61 -40,125 -40,193l0 4c0,66 13,129 38,189 -7,-16 -13,-33 -18,-50 121,-30 245,-57 373,-81 -7,-19 -10,-40 -10,-62l0 -3c0,-46 15,-84 44,-117 29,-32 66,-49 111,-49 44,0 82,17 112,49 31,33 46,73 46,120l0 4zm-544 353c37,35 79,64 126,87 -47,-23 -89,-52 -126,-87z"/>
   <polygon class="fil2" points="2620,3665 2228,3665 2620,3268 2620,3019 1695,3019 1694,3019 1694,3332 2068,3332 1678,3729 1678,3978 2620,3978 "/>
  </g>
  <g id="_2441767050352">
   <path class="fil3" d="M3200 4757l-260 0c6,-44 20,-79 42,-105 23,-26 51,-39 85,-39 35,0 65,13 89,38 25,25 40,61 44,106zm-614 -40c-4,16 -7,33 -9,49 -2,-15 -5,-31 -7,-46 -127,25 -257,43 -388,52 8,20 11,42 11,66l0 4c0,49 -15,90 -45,123 -30,33 -68,49 -114,49 -23,0 -44,-4 -64,-13 -19,-9 -35,-21 -49,-37 -14,-16 -25,-34 -34,-55 -8,-21 -12,-44 -12,-67l0 -4c0,-21 4,-41 9,-59 -136,-1 -270,1 -401,6l0 535 401 0 0 -109c30,34 68,64 112,91 45,27 103,41 175,41 57,0 109,-12 159,-36 50,-24 93,-59 130,-103 37,-45 66,-98 87,-160 5,-13 9,-26 12,-40 2,-6 3,-12 5,-18 1,-6 2,-11 3,-17 4,-18 6,-36 8,-55l0 0c3,20 6,39 10,57 1,7 3,14 5,21 1,6 3,12 5,17 4,14 9,27 14,40 25,61 61,113 107,157 46,43 102,77 167,101 65,24 137,36 215,36 105,0 192,-20 261,-58 70,-39 129,-89 177,-151l-214 -171c-32,33 -63,57 -94,74 -32,16 -65,24 -102,24 -43,0 -80,-10 -112,-32 -32,-22 -54,-54 -68,-96l616 0c1,-10 2,-21 2,-33l0 -34c0,-72 -10,-141 -30,-205 -20,-65 -50,-121 -91,-169 -13,-15 -28,-29 -43,-42 -101,45 -204,86 -310,121 -164,62 -332,111 -504,146z"/>
   <path class="fil3" d="M4879 4337c-74,0 -136,15 -187,45 -51,30 -97,68 -139,114 -26,-52 -64,-91 -112,-118 -48,-27 -104,-41 -170,-41 -66,0 -123,16 -171,46 -48,31 -87,66 -118,106l0 -129 -397 0c-1,1 -2,1 -3,2l0 958 400 0 0 -508c0,-41 11,-72 33,-94 22,-22 48,-33 77,-33 29,0 54,11 74,33 21,22 31,53 31,94l0 508 400 0 0 -508c0,-41 11,-72 34,-94 22,-22 47,-33 76,-33 29,0 54,11 74,33 21,22 31,53 31,94l0 508 400 0 0 -633c0,-109 -29,-194 -88,-256 -60,-63 -141,-94 -245,-94z"/>
   <path class="fil3" d="M159 5195c48,46 104,82 171,108 66,27 138,40 217,40 78,0 151,-14 218,-41 66,-27 123,-63 171,-109 47,-45 85,-99 112,-160 26,-60 40,-125 40,-193l0 -3c0,-10 -1,-18 -1,-27 -131,11 -259,25 -383,43 -2,41 -16,77 -43,107 -29,32 -66,49 -111,49 -44,0 -82,-17 -112,-49 -16,-17 -28,-37 -36,-58 -128,24 -252,51 -373,81 6,18 12,36 19,53 27,60 64,113 111,159z"/>
  </g>
 </g>
</svg>
